HIERARCHY
ROOT Root
{
  OFFSET 0.0 0.0 0.0
  CHANNELS 6 Xposition Yposition Zposition Zrotation Yrotation Xrotation
  JOINT Hips
  {
    OFFSET 0.0 100.0 0.0
    CHANNELS 6 Xposition Yposition Zposition Zrotation Yrotation Xrotation
    JOINT Spine1
    {
      OFFSET 5.003913 -0.037094 -0.013727
      CHANNELS 3 Zrotation Yrotation Xrotation
      JOINT Spine2
      {
        OFFSET 7.125363 -1e-06 0.0
        CHANNELS 3 Zrotation Yrotation Xrotation
        JOINT Chest
        {
          OFFSET 7.594027 1e-06 0.0
          CHANNELS 3 Zrotation Yrotation Xrotation
          JOINT Neck1
          {
            OFFSET 26.313086 -0.460272 -0.181672
            CHANNELS 3 Zrotation Yrotation Xrotation
            JOINT Neck2
            {
              OFFSET 8.045911 0.0 0.0
              CHANNELS 3 Zrotation Yrotation Xrotation
              JOINT Head
              {
                OFFSET 6.432774 0.0 0.0
                CHANNELS 3 Zrotation Yrotation Xrotation
                JOINT HeadEnd
                {
                  OFFSET 16.169773 0.06451 0.00362
                  CHANNELS 3 Zrotation Yrotation Xrotation
                }
                JOINT Jaw
                {
                  OFFSET 0.108741 3.12938 0.002639
                  CHANNELS 3 Zrotation Yrotation Xrotation
                }
                JOINT LeftEye
                {
                  OFFSET 4.45173 8.166359 3.206392
                  CHANNELS 3 Zrotation Yrotation Xrotation
                }
                JOINT RightEye
                {
                  OFFSET 4.436895 8.135758 -3.222429
                  CHANNELS 3 Zrotation Yrotation Xrotation
                }
              }
            }
          }
          JOINT LeftShoulder
          {
            OFFSET 23.218927 5.195579 1.621656
            CHANNELS 3 Zrotation Yrotation Xrotation
            JOINT LeftArm
            {
              OFFSET 15.902118 2e-06 -2e-06
              CHANNELS 3 Zrotation Yrotation Xrotation
              JOINT LeftForeArm
              {
                OFFSET 28.739307 0.0 -1e-06
                CHANNELS 3 Zrotation Yrotation Xrotation
                JOINT LeftHand
                {
                  OFFSET 27.093981 -4e-06 0.0
                  CHANNELS 3 Zrotation Yrotation Xrotation
                  JOINT LeftHandThumb1
                  {
                    OFFSET 2.276781 3.380274 0.83384
                    CHANNELS 3 Zrotation Yrotation Xrotation
                    JOINT LeftHandThumb2
                    {
                      OFFSET 4.705309 -1e-06 -1e-06
                      CHANNELS 3 Zrotation Yrotation Xrotation
                      JOINT LeftHandThumb3
                      {
                        OFFSET 2.798515 0.0 3e-06
                        CHANNELS 3 Zrotation Yrotation Xrotation
                        JOINT LeftHandThumbEnd
                        {
                          OFFSET 3.180793 4e-06 -4e-06
                          CHANNELS 3 Zrotation Yrotation Xrotation
                        }
                      }
                    }
                  }
                  JOINT LeftHandIndex1
                  {
                    OFFSET 3.247786 2.352677 0.137192
                    CHANNELS 3 Zrotation Yrotation Xrotation
                    JOINT LeftHandIndex2
                    {
                      OFFSET 6.367095 1e-06 0.0
                      CHANNELS 3 Zrotation Yrotation Xrotation
                      JOINT LeftHandIndex3
                      {
                        OFFSET 3.662364 0.0 0.0
                        CHANNELS 3 Zrotation Yrotation Xrotation
                        JOINT LeftHandIndex4
                        {
                          OFFSET 2.329242 4e-06 -4e-06
                          CHANNELS 3 Zrotation Yrotation Xrotation
                          JOINT LeftHandIndexEnd
                          {
                            OFFSET 2.767823 1e-06 0.0
                            CHANNELS 3 Zrotation Yrotation Xrotation
                          }
                        }
                      }
                    }
                  }
                  JOINT LeftHandMiddle1
                  {
                    OFFSET 3.163612 0.945023 -0.406112
                    CHANNELS 3 Zrotation Yrotation Xrotation
                    JOINT LeftHandMiddle2
                    {
                      OFFSET 6.276789 3e-06 0.0
                      CHANNELS 3 Zrotation Yrotation Xrotation
                      JOINT LeftHandMiddle3
                      {
                        OFFSET 4.35652 -1e-06 4e-06
                        CHANNELS 3 Zrotation Yrotation Xrotation
                        JOINT LeftHandMiddle4
                        {
                          OFFSET 2.996877 0.0 8e-06
                          CHANNELS 3 Zrotation Yrotation Xrotation
                          JOINT LeftHandMiddleEnd
                          {
                            OFFSET 2.323256 3e-06 -4e-06
                            CHANNELS 3 Zrotation Yrotation Xrotation
                          }
                        }
                      }
                    }
                  }
                  JOINT LeftHandRing1
                  {
                    OFFSET 2.882606 -0.309162 0.107445
                    CHANNELS 3 Zrotation Yrotation Xrotation
                    JOINT LeftHandRing2
                    {
                      OFFSET 6.033198 0.0 4e-06
                      CHANNELS 3 Zrotation Yrotation Xrotation
                      JOINT LeftHandRing3
                      {
                        OFFSET 4.350578 3e-06 0.0
                        CHANNELS 3 Zrotation Yrotation Xrotation
                        JOINT LeftHandRing4
                        {
                          OFFSET 2.651321 2e-06 -7e-06
                          CHANNELS 3 Zrotation Yrotation Xrotation
                          JOINT LeftHandRingEnd
                          {
                            OFFSET 1.937663 1e-06 -4e-06
                            CHANNELS 3 Zrotation Yrotation Xrotation
                          }
                        }
                      }
                    }
                  }
                  JOINT LeftHandPinky1
                  {
                    OFFSET 2.865315 -1.525436 0.575687
                    CHANNELS 3 Zrotation Yrotation Xrotation
                    JOINT LeftHandPinky2
                    {
                      OFFSET 5.54936 1e-06 -8e-06
                      CHANNELS 3 Zrotation Yrotation Xrotation
                      JOINT LeftHandPinky3
                      {
                        OFFSET 3.070974 0.0 -4e-06
                        CHANNELS 3 Zrotation Yrotation Xrotation
                        JOINT LeftHandPinky4
                        {
                          OFFSET 1.549672 1e-06 0.0
                          CHANNELS 3 Zrotation Yrotation Xrotation
                          JOINT LeftHandPinkyEnd
                          {
                            OFFSET 1.952123 0.0 0.0
                            CHANNELS 3 Zrotation Yrotation Xrotation
                          }
                        }
                      }
                    }
                  }
                }
              }
            }
          }
          JOINT RightShoulder
          {
            OFFSET 23.161716 5.296122 -1.380114
            CHANNELS 3 Zrotation Yrotation Xrotation
            JOINT RightArm
            {
              OFFSET -16.027195 -2e-06 1.1e-05
              CHANNELS 3 Zrotation Yrotation Xrotation
              JOINT RightForeArm
              {
                OFFSET -28.736639 4e-06 2e-06
                CHANNELS 3 Zrotation Yrotation Xrotation
                JOINT RightHand
                {
                  OFFSET -27.133619 6e-06 0.0
                  CHANNELS 3 Zrotation Yrotation Xrotation
                  JOINT RightHandThumb1
                  {
                    OFFSET -2.274328 -3.351035 -0.83067
                    CHANNELS 3 Zrotation Yrotation Xrotation
                    JOINT RightHandThumb2
                    {
                      OFFSET -4.703594 -3e-06 2e-06
                      CHANNELS 3 Zrotation Yrotation Xrotation
                      JOINT RightHandThumb3
                      {
                        OFFSET -2.794935 -4e-06 -3e-06
                        CHANNELS 3 Zrotation Yrotation Xrotation
                        JOINT RightHandThumbEnd
                        {
                          OFFSET -3.183852 4e-06 1e-06
                          CHANNELS 3 Zrotation Yrotation Xrotation
                        }
                      }
                    }
                  }
                  JOINT RightHandIndex1
                  {
                    OFFSET -3.253496 -2.33755 -0.127667
                    CHANNELS 3 Zrotation Yrotation Xrotation
                    JOINT RightHandIndex2
                    {
                      OFFSET -6.344434 0.0 0.0
                      CHANNELS 3 Zrotation Yrotation Xrotation
                      JOINT RightHandIndex3
                      {
                        OFFSET -3.654871 0.0 -8e-06
                        CHANNELS 3 Zrotation Yrotation Xrotation
                        JOINT RightHandIndex4
                        {
                          OFFSET -2.327586 -1e-06 0.0
                          CHANNELS 3 Zrotation Yrotation Xrotation
                          JOINT RightHandIndexEnd
                          {
                            OFFSET -2.770001 3e-06 8e-06
                            CHANNELS 3 Zrotation Yrotation Xrotation
                          }
                        }
                      }
                    }
                  }
                  JOINT RightHandMiddle1
                  {
                    OFFSET -3.168223 -0.944764 0.411762
                    CHANNELS 3 Zrotation Yrotation Xrotation
                    JOINT RightHandMiddle2
                    {
                      OFFSET -6.266691 -1e-06 -4e-06
                      CHANNELS 3 Zrotation Yrotation Xrotation
                      JOINT RightHandMiddle3
                      {
                        OFFSET -4.348901 0.0 0.0
                        CHANNELS 3 Zrotation Yrotation Xrotation
                        JOINT RightHandMiddle4
                        {
                          OFFSET -3.00024 2e-06 -4e-06
                          CHANNELS 3 Zrotation Yrotation Xrotation
                          JOINT RightHandMiddleEnd
                          {
                            OFFSET -2.321477 -4e-06 -4e-06
                            CHANNELS 3 Zrotation Yrotation Xrotation
                          }
                        }
                      }
                    }
                  }
                  JOINT RightHandRing1
                  {
                    OFFSET -2.885654 0.293261 -0.119232
                    CHANNELS 3 Zrotation Yrotation Xrotation
                    JOINT RightHandRing2
                    {
                      OFFSET -6.032835 -1e-06 -4e-06
                      CHANNELS 3 Zrotation Yrotation Xrotation
                      JOINT RightHandRing3
                      {
                        OFFSET -4.33881 0.0 -4e-06
                        CHANNELS 3 Zrotation Yrotation Xrotation
                        JOINT RightHandRing4
                        {
                          OFFSET -2.654903 -4e-06 -4e-06
                          CHANNELS 3 Zrotation Yrotation Xrotation
                          JOINT RightHandRingEnd
                          {
                            OFFSET -1.935122 0.0 4e-06
                            CHANNELS 3 Zrotation Yrotation Xrotation
                          }
                        }
                      }
                    }
                  }
                  JOINT RightHandPinky1
                  {
                    OFFSET -2.866241 1.503904 -0.60527
                    CHANNELS 3 Zrotation Yrotation Xrotation
                    JOINT RightHandPinky2
                    {
                      OFFSET -5.553177 -2e-06 0.0
                      CHANNELS 3 Zrotation Yrotation Xrotation
                      JOINT RightHandPinky3
                      {
                        OFFSET -3.062664 -1e-06 -4e-06
                        CHANNELS 3 Zrotation Yrotation Xrotation
                        JOINT RightHandPinky4
                        {
                          OFFSET -1.546529 2e-06 4e-06
                          CHANNELS 3 Zrotation Yrotation Xrotation
                          JOINT RightHandPinkyEnd
                          {
                            OFFSET -1.952341 0.0 -4e-06
                            CHANNELS 3 Zrotation Yrotation Xrotation
                          }
                        }
                      }
                    }
                  }
                }
              }
            }
          }
        }
      }
    }
    JOINT LeftLeg
    {
      OFFSET -8.443107 2.567604 10.043214
      CHANNELS 3 Zrotation Yrotation Xrotation
      JOINT LeftShin
      {
        OFFSET 43.229198 1e-06 -1e-06
        CHANNELS 3 Zrotation Yrotation Xrotation
        JOINT LeftFoot
        {
          OFFSET 42.298611 1e-06 1e-06
          CHANNELS 3 Zrotation Yrotation Xrotation
          JOINT LeftToeBase
          {
            OFFSET 14.165858 1e-06 0.0
            CHANNELS 3 Zrotation Yrotation Xrotation
            JOINT LeftToeEnd
            {
              OFFSET 6.7141 -0.234461 0.0
              CHANNELS 3 Zrotation Yrotation Xrotation
            }
          }
        }
      }
    }
    JOINT RightLeg
    {
      OFFSET -8.303923 2.592729 -10.047278
      CHANNELS 3 Zrotation Yrotation Xrotation
      JOINT RightShin
      {
        OFFSET -43.369682 0.0 1e-06
        CHANNELS 3 Zrotation Yrotation Xrotation
        JOINT RightFoot
        {
          OFFSET -42.260784 4e-06 2e-06
          CHANNELS 3 Zrotation Yrotation Xrotation
          JOINT RightToeBase
          {
            OFFSET -14.222245 -2e-06 -1e-06
            CHANNELS 3 Zrotation Yrotation Xrotation
            JOINT RightToeEnd
            {
              OFFSET -6.660062 0.232574 -2e-06
              CHANNELS 3 Zrotation Yrotation Xrotation
            }
          }
        }
      }
    }
  }
}
MOTION
Frames: 5
Frame Time: 0.03333333333333333
0.0 0.0 0.0 0.0 -0.0 0.0 2.552593 48.448364 1.760289 96.432426 -54.557575 87.489998 13.579489 -2.789914 -1.485626 -5.14249 -1.57242 -0.528251 20.91227 -3.899585 -4.198421 11.076937 6.393239 3.615634 -2.630058 -0.34336 -1.077742 -30.489401 1.545013 -2.382841 6e-06 0.0 0.0 -0.147803 0.009413 -0.034726 0.148514 0.053908 0.036043 0.147468 -0.036924 -0.102825 -38.571133 -81.745979 50.339794 79.493393 -22.202078 -31.739767 31.123533 -1.830172 -1.090216 16.357595 83.253311 17.244549 17.636635 -26.322733 52.411205 -19.466665 -14.395602 29.410395 -1e-06 -8.774822 -3e-06 14.330622 -17.643242 6.650249 -0.609776 -1.795653 -3.889326 -4.807084 -11.04681 -2.937852 6e-06 -20.976017 -1e-06 -5.019967 -25.03356 -4.031883 6e-06 -0.0 0.0 -10.634533 -5.686973 -3.565589 10.573277 -17.922949 -3.113902 3e-06 -13.821209 -0.0 -0.501772 -31.181501 -4.027017 -10.304286 -57.659664 7.263985 -13.982716 -7.150196 -2.875044 13.772734 -8.401493 -3.218241 0.347737 -34.211555 0.771653 -0.963027 -17.733372 2.621021 -0.0 -0.0 -0.0 -17.346415 -20.095217 -4.201784 21.757559 -1.638378 3.86643 0.0 -6.338824 0.0 -1.697587 -22.591742 -6.194005 -1e-06 -5e-06 -2e-06 175.377747 -78.368423 11.577891 73.341827 0.227955 -38.570202 23.544662 -0.113259 -0.215933 -4.386892 61.339199 -8.671383 22.182116 -20.375895 49.933319 -16.701813 -16.743525 28.47653 -1e-06 -12.690598 -2e-06 15.63355 -17.727818 2.621411 -0.105921 -1.513856 -4.275882 -5.039038 -5.612869 -2.953557 5e-06 -11.020521 -3e-06 -6.1113 -15.895334 -3.840471 1e-06 2e-06 -1e-06 -10.283368 -5.680288 -4.34184 11.028295 -11.302404 -2.372632 -1.384268 -14.238581 -6.32012 -0.625436 -26.924187 -3.827603 -3.693428 -48.366623 -4.434672 -13.708522 -7.363474 -3.720941 18.141146 -14.052739 -3.242674 6e-06 -18.787268 -2e-06 -0.42971 -8.45604 2.555504 -2e-06 -1e-06 1e-06 -15.923534 -20.094481 -5.473588 30.419207 -7.190828 1.735928 4e-06 -8.162921 -1e-06 -1.861903 -22.861467 -6.167939 2e-06 -3e-06 -0.0 108.397026 -0.082514 -0.525511 126.250389 0.877336 0.765168 -79.455933 11.653975 -4.839272 -17.114304 1.348874 1.936869 -0.999998 0.0 0.0 -34.471252 -14.112868 -8.68979 92.035217 -3.378318 0.830207 -71.893692 12.621109 -8.611368 -16.372694 0.766538 1.519263 -1.000001 -0.0 2e-06 
0.0 0.0 0.0 0.0 -0.0 0.0 2.96205 48.351894 3.392338 96.504601 -55.607101 86.540749 13.136444 -2.507908 -1.461454 -5.416922 -1.342302 -0.581812 20.475769 -3.621176 -4.217094 10.613838 5.821321 3.248729 -2.594091 0.021771 -0.838815 -30.809925 1.360705 -2.033565 7e-06 0.0 0.0 -0.145641 0.065292 -0.068494 0.17555 0.074846 0.002634 0.184733 0.054914 -0.139566 -41.583241 -82.894753 54.065395 78.263756 -24.426924 -32.68671 31.318064 -1.651809 -1.055465 29.836651 82.847549 29.999964 17.636625 -26.322731 52.41119 -19.466654 -14.395597 29.410381 0.0 -8.774822 -5e-06 14.434369 -17.689381 6.529474 -0.609778 -1.795653 -3.889327 -4.807087 -11.046813 -2.937852 2e-06 -20.976019 1e-06 -5.019971 -25.033558 -4.031879 6e-06 -0.0 2e-06 -10.634538 -5.686971 -3.565587 10.573277 -17.922951 -3.1139 0.0 -13.821212 1e-06 -0.501778 -31.181505 -4.027017 -10.170455 -57.766933 7.268866 -13.982714 -7.150198 -2.875042 13.772729 -8.401489 -3.218241 0.347731 -34.211555 0.771654 -0.96303 -17.73337 2.621019 -1e-06 0.0 2e-06 -17.346422 -20.095217 -4.201782 21.757559 -1.638374 3.86643 1e-06 -6.338823 -0.0 -1.69759 -22.591745 -6.194005 -0.0 -5e-06 -2e-06 170.624146 -77.986511 16.408386 75.790466 -0.499105 -36.769588 24.040222 -0.275983 -0.19025 -4.8685 62.488754 -8.89855 22.182116 -20.375893 49.933319 -16.701815 -16.743528 28.47653 -2e-06 -12.6906 -2e-06 15.748903 -17.808937 2.719546 -0.10592 -1.513857 -4.275879 -5.039038 -5.612873 -2.953557 4e-06 -11.020523 -3e-06 -6.111299 -15.895329 -3.840469 -0.0 -0.0 1e-06 -10.283372 -5.680289 -4.341837 11.028296 -11.302406 -2.372634 -1.384268 -14.238581 -6.320122 -0.625435 -26.924187 -3.827602 -3.728137 -48.659203 -4.244141 -13.708525 -7.363477 -3.720939 18.141148 -14.052738 -3.242673 6e-06 -18.78727 -3e-06 -0.429712 -8.456043 2.555505 -0.0 -0.0 1e-06 -15.923536 -20.094482 -5.473582 30.41921 -7.190829 1.735925 4e-06 -8.162926 -3e-06 -1.861902 -22.861467 -6.167942 2e-06 -3e-06 -1e-06 110.046715 -0.411751 -0.865988 124.144112 0.698442 0.757943 -80.445511 10.501958 -4.916953 -17.391691 1.357423 1.940823 -1.0 -0.0 1e-06 -34.384571 -14.297297 -8.513696 90.314034 -3.561451 0.915059 -71.772148 11.415633 -9.329844 -15.031403 0.74438 1.560175 -1.000002 0.0 0.0 
0.0 0.0 0.0 0.0 -0.0 0.0 3.332255 48.541061 5.207678 96.761086 -56.651676 85.788223 12.799129 -2.149702 -1.355823 -5.587971 -1.235974 -0.727085 20.078476 -3.134102 -4.341151 10.054673 5.449654 2.956441 -2.586167 0.203613 -0.607177 -31.151793 1.176551 -1.755947 4e-06 0.0 0.0 -0.150356 0.115314 -0.09716 0.12845 0.096785 -0.040735 0.147375 0.134557 -0.154862 -44.018852 -83.939423 56.9757 76.773476 -26.598955 -33.951866 32.464058 -1.308922 -0.938038 37.7813 81.669258 37.418121 17.636627 -26.322725 52.411194 -19.46665 -14.395592 29.410381 0.0 -8.774821 -4e-06 14.480001 -17.767527 6.453843 -0.609775 -1.795655 -3.889328 -4.80709 -11.046809 -2.937852 5e-06 -20.976011 -2e-06 -5.019968 -25.033552 -4.031882 6e-06 0.0 -2e-06 -10.634533 -5.686972 -3.565588 10.573277 -17.922945 -3.113901 3e-06 -13.821205 0.0 -0.501775 -31.181498 -4.027019 -10.196403 -57.922096 7.2606 -13.982713 -7.150198 -2.875043 13.772729 -8.401487 -3.218238 0.347735 -34.21154 0.771655 -0.963028 -17.733364 2.621019 0.0 0.0 1e-06 -17.346416 -20.095217 -4.201784 21.757555 -1.638375 3.866428 1e-06 -6.338822 1e-06 -1.697589 -22.591738 -6.194006 -1e-06 -4e-06 -2e-06 165.402771 -77.421066 21.475931 77.979607 -1.46989 -34.882271 24.997126 -0.367942 -0.170134 -5.393768 64.182487 -8.021971 22.18211 -20.375891 49.933319 -16.701813 -16.743528 28.476534 -2e-06 -12.690601 2e-06 15.778267 -17.77006 2.751016 -0.105918 -1.513855 -4.275882 -5.039039 -5.612869 -2.953556 3e-06 -11.02052 -4e-06 -6.111297 -15.895332 -3.840472 1e-06 1e-06 2e-06 -10.283368 -5.680286 -4.341839 11.028292 -11.302403 -2.372634 -1.384268 -14.238578 -6.32012 -0.625432 -26.924183 -3.827606 -3.629588 -48.544498 -4.302206 -13.708523 -7.363473 -3.720938 18.14115 -14.052736 -3.242676 6e-06 -18.787266 -2e-06 -0.429711 -8.456041 2.555505 -1e-06 -1e-06 0.0 -15.923532 -20.094479 -5.473586 30.419205 -7.190826 1.735922 4e-06 -8.162922 -2e-06 -1.861902 -22.861467 -6.167941 0.0 -3e-06 -0.0 111.634422 -0.277301 -1.207407 121.831093 0.556723 0.683606 -81.816856 9.302606 -4.735298 -17.846039 1.364445 1.933726 -0.999999 0.0 0.0 -34.734146 -14.553127 -8.616683 88.535744 -3.763329 0.979835 -71.903168 9.419748 -10.425831 -14.827409 0.739606 1.60695 -1.000001 0.0 0.0 
0.0 0.0 0.0 0.0 -0.0 0.0 3.526925 48.813808 6.84835 96.847961 -57.58215 85.324745 12.645208 -1.797836 -1.232929 -5.66231 -1.127987 -0.795417 19.724867 -2.560381 -4.522663 9.514805 5.328671 2.865848 -2.551329 -0.025258 -0.42157 -31.413994 1.203943 -1.524991 7e-06 -0.0 0.0 -0.150823 0.133816 -0.095766 0.103053 0.096666 -0.046037 0.123406 0.175719 -0.150939 -47.089432 -84.35614 60.123753 75.546547 -28.306465 -35.361298 34.509766 -0.849463 -0.772825 40.749352 80.324471 40.720142 17.636627 -26.322733 52.411205 -19.466652 -14.395597 29.410389 1e-06 -8.774823 -3e-06 14.317099 -17.854788 6.429689 -0.609775 -1.795653 -3.889329 -4.80709 -11.046811 -2.937851 2e-06 -20.976021 -0.0 -5.019972 -25.033562 -4.031884 6e-06 -0.0 1e-06 -10.634534 -5.686973 -3.565589 10.573275 -17.922949 -3.113899 -1e-06 -13.821209 1e-06 -0.501778 -31.181505 -4.027019 -10.47233 -57.936344 7.094383 -13.982711 -7.150198 -2.875041 13.772726 -8.401493 -3.218243 0.347732 -34.211555 0.771655 -0.963028 -17.73337 2.621017 -1e-06 0.0 1e-06 -17.346418 -20.095221 -4.201783 21.757555 -1.638372 3.866429 0.0 -6.338824 0.0 -1.697588 -22.591742 -6.194008 -1e-06 -5e-06 -2e-06 161.071213 -76.878723 25.399698 79.798088 -2.348529 -32.900188 25.743143 -0.4958 -0.199125 -6.18672 65.85009 -7.455573 22.182117 -20.375898 49.933319 -16.701811 -16.743528 28.476532 -2e-06 -12.690603 -0.0 15.787807 -17.85187 2.824981 -0.10592 -1.513857 -4.275882 -5.039041 -5.612873 -2.953557 2e-06 -11.020523 -2e-06 -6.1113 -15.895332 -3.840471 -1e-06 -0.0 0.0 -10.283373 -5.68029 -4.341838 11.028295 -11.302404 -2.372633 -1.384271 -14.238584 -6.32012 -0.625439 -26.924191 -3.827602 -3.60522 -48.345795 -4.462207 -13.708524 -7.363478 -3.72094 18.141148 -14.052736 -3.242671 2e-06 -18.787271 1e-06 -0.429711 -8.456042 2.555502 -0.0 1e-06 -0.0 -15.923536 -20.094484 -5.473584 30.419207 -7.190826 1.735927 3e-06 -8.162927 -2e-06 -1.861905 -22.861467 -6.167942 -0.0 -4e-06 -0.0 113.036537 0.00197 -1.308277 119.484779 0.472231 0.626922 -83.048409 9.378315 -4.511465 -19.238035 1.414772 1.854326 -0.999998 0.0 0.0 -35.652832 -14.776814 -8.730859 87.83902 -3.857336 0.997247 -72.704338 6.819951 -11.451928 -14.818128 0.755985 1.635913 -1.000001 -0.0 -0.0 
0.0 0.0 0.0 0.0 -0.0 0.0 3.610645 49.287724 8.377584 96.806664 -58.327965 85.034714 12.555328 -1.388188 -1.12398 -5.698323 -1.059891 -0.874914 19.454653 -1.954784 -4.433947 9.301309 4.969197 2.712664 -2.556427 -0.064472 -0.115527 -31.638054 1.292433 -1.274024 4e-06 -0.0 -0.0 -0.146947 0.175395 -0.117872 0.069702 0.121821 -0.072111 0.092241 0.23734 -0.170696 -49.045589 -84.287529 62.139095 74.315102 -29.123468 -37.337536 38.085136 -0.638463 -0.815378 43.351387 78.292496 44.569103 17.636641 -26.322729 52.411186 -19.466663 -14.395594 29.410389 -0.0 -8.774822 -4e-06 14.537981 -18.032654 6.472289 -0.609777 -1.795653 -3.889329 -4.807088 -11.046811 -2.93785 4e-06 -20.976021 1e-06 -5.01997 -25.03356 -4.03188 6e-06 0.0 -3e-06 -10.634537 -5.686969 -3.56559 10.573277 -17.922951 -3.113899 2e-06 -13.82121 -1e-06 -0.501775 -31.181501 -4.027014 -10.80403 -58.315426 7.213225 -13.982716 -7.150195 -2.875044 13.772731 -8.401493 -3.218238 0.347738 -34.211555 0.771654 -0.963027 -17.73337 2.621017 -0.0 -0.0 2e-06 -17.346416 -20.095217 -4.201784 21.757561 -1.638375 3.866431 0.0 -6.338825 -1e-06 -1.697586 -22.591743 -6.194008 -1e-06 -4e-06 -2e-06 157.939926 -76.458351 28.144148 81.268623 -3.198509 -31.32896 26.206465 -0.516271 -0.156628 -6.389926 67.371071 -6.752638 22.182117 -20.375904 49.933327 -16.701815 -16.74353 28.476538 -3e-06 -12.690604 1e-06 15.85337 -17.864937 2.865814 -0.105919 -1.513856 -4.275882 -5.039041 -5.612873 -2.953558 4e-06 -11.020525 -2e-06 -6.111297 -15.895336 -3.84047 -1e-06 2e-06 2e-06 -10.283373 -5.680289 -4.341838 11.028297 -11.302409 -2.372634 -1.384269 -14.238585 -6.320123 -0.625436 -26.924196 -3.827606 -3.652359 -48.295727 -4.556092 -13.708526 -7.363479 -3.72094 18.141151 -14.05274 -3.242675 5e-06 -18.787275 -1e-06 -0.429711 -8.456046 2.555502 0.0 -0.0 2e-06 -15.923536 -20.09449 -5.473586 30.419222 -7.190829 1.735925 3e-06 -8.162929 -3e-06 -1.861903 -22.861483 -6.167943 1e-06 -4e-06 -1e-06 114.220474 0.269392 -1.317991 117.509811 0.341026 0.524337 -85.029427 8.936957 -4.478927 -20.545767 1.440025 1.761793 -0.999999 -0.0 0.0 -37.397118 -15.139825 -8.819506 89.190033 -3.852589 0.945151 -74.81382 5.239209 -12.029376 -13.722437 0.728461 1.724792 -1.000001 -1e-06 -1e-06 
